<svg xmlns="http://www.w3.org/2000/svg" xmlns:xlink="http://www.w3.org/1999/xlink" width="1080" zoomAndPan="magnify" viewBox="0 0 810 809.999993" height="1080" preserveAspectRatio="xMidYMid meet" version="1.0"><defs><g/><clipPath id="17054eeef3"><path d="M 43.398438 115.199219 L 149.148438 115.199219 L 149.148438 220.949219 L 43.398438 220.949219 Z M 43.398438 115.199219 " clip-rule="nonzero"/></clipPath><clipPath id="75a5eb131b"><path d="M 96.273438 115.199219 C 98.007812 115.199219 99.734375 115.285156 101.457031 115.453125 C 103.179688 115.625 104.890625 115.878906 106.589844 116.214844 C 108.289062 116.554688 109.964844 116.972656 111.625 117.476562 C 113.28125 117.980469 114.910156 118.5625 116.507812 119.226562 C 118.109375 119.886719 119.671875 120.628906 121.199219 121.445312 C 122.726562 122.257812 124.210938 123.148438 125.652344 124.109375 C 127.089844 125.074219 128.480469 126.101562 129.820312 127.203125 C 131.15625 128.300781 132.4375 129.460938 133.664062 130.6875 C 134.886719 131.910156 136.050781 133.191406 137.148438 134.53125 C 138.246094 135.871094 139.277344 137.257812 140.238281 138.699219 C 141.199219 140.140625 142.089844 141.621094 142.90625 143.148438 C 143.722656 144.675781 144.460938 146.242188 145.125 147.839844 C 145.789062 149.441406 146.371094 151.070312 146.875 152.726562 C 147.375 154.382812 147.796875 156.0625 148.132812 157.757812 C 148.472656 159.457031 148.726562 161.167969 148.894531 162.890625 C 149.066406 164.617188 149.148438 166.34375 149.148438 168.074219 C 149.148438 169.808594 149.066406 171.535156 148.894531 173.257812 C 148.726562 174.980469 148.472656 176.691406 148.132812 178.390625 C 147.796875 180.089844 147.375 181.765625 146.875 183.421875 C 146.371094 185.082031 145.789062 186.710938 145.125 188.308594 C 144.460938 189.910156 143.722656 191.472656 142.90625 193 C 142.089844 194.527344 141.199219 196.011719 140.238281 197.449219 C 139.277344 198.890625 138.246094 200.28125 137.148438 201.617188 C 136.050781 202.957031 134.886719 204.238281 133.664062 205.464844 C 132.4375 206.6875 131.15625 207.847656 129.820312 208.949219 C 128.480469 210.046875 127.089844 211.078125 125.652344 212.039062 C 124.210938 213 122.726562 213.890625 121.199219 214.707031 C 119.671875 215.523438 118.109375 216.261719 116.507812 216.925781 C 114.910156 217.585938 113.28125 218.171875 111.625 218.671875 C 109.964844 219.175781 108.289062 219.597656 106.589844 219.933594 C 104.890625 220.273438 103.179688 220.527344 101.457031 220.695312 C 99.734375 220.863281 98.007812 220.949219 96.273438 220.949219 C 94.542969 220.949219 92.816406 220.863281 91.09375 220.695312 C 89.367188 220.527344 87.65625 220.273438 85.960938 219.933594 C 84.261719 219.597656 82.582031 219.175781 80.925781 218.671875 C 79.269531 218.171875 77.640625 217.585938 76.039062 216.925781 C 74.441406 216.261719 72.878906 215.523438 71.351562 214.707031 C 69.824219 213.890625 68.339844 213 66.898438 212.039062 C 65.460938 211.078125 64.070312 210.046875 62.730469 208.949219 C 61.394531 207.847656 60.109375 206.6875 58.886719 205.464844 C 57.664062 204.238281 56.5 202.957031 55.402344 201.617188 C 54.304688 200.28125 53.273438 198.890625 52.3125 197.449219 C 51.347656 196.011719 50.460938 194.527344 49.644531 193 C 48.828125 191.472656 48.085938 189.910156 47.425781 188.308594 C 46.761719 186.710938 46.179688 185.082031 45.675781 183.421875 C 45.175781 181.765625 44.753906 180.089844 44.414062 178.390625 C 44.078125 176.691406 43.824219 174.980469 43.65625 173.257812 C 43.484375 171.535156 43.398438 169.808594 43.398438 168.074219 C 43.398438 166.34375 43.484375 164.617188 43.65625 162.890625 C 43.824219 161.167969 44.078125 159.457031 44.414062 157.757812 C 44.753906 156.0625 45.175781 154.382812 45.675781 152.726562 C 46.179688 151.070312 46.761719 149.441406 47.425781 147.839844 C 48.085938 146.242188 48.828125 144.675781 49.644531 143.148438 C 50.460938 141.621094 51.347656 140.140625 52.3125 138.699219 C 53.273438 137.257812 54.304688 135.871094 55.402344 134.53125 C 56.5 133.191406 57.664062 131.910156 58.886719 130.6875 C 60.109375 129.460938 61.394531 128.300781 62.730469 127.203125 C 64.070312 126.101562 65.460938 125.074219 66.898438 124.109375 C 68.339844 123.148438 69.824219 122.257812 71.351562 121.445312 C 72.878906 120.628906 74.441406 119.886719 76.039062 119.226562 C 77.640625 118.5625 79.269531 117.980469 80.925781 117.476562 C 82.582031 116.972656 84.261719 116.554688 85.960938 116.214844 C 87.65625 115.878906 89.367188 115.625 91.09375 115.453125 C 92.816406 115.285156 94.542969 115.199219 96.273438 115.199219 Z M 96.273438 115.199219 " clip-rule="nonzero"/></clipPath><linearGradient x1="94.951906" gradientTransform="matrix(1.0575, 0, 0, 1.0575, 43.400012, 115.200029)" y1="-4.279202" x2="3.814995" gradientUnits="userSpaceOnUse" y2="103.233873" id="69afa07709"><stop stop-opacity="1" stop-color="rgb(18.399048%, 72.499084%, 48.999023%)" offset="0"/><stop stop-opacity="1" stop-color="rgb(18.399048%, 72.499084%, 48.999023%)" offset="0.125"/><stop stop-opacity="1" stop-color="rgb(18.31665%, 72.488403%, 49.125671%)" offset="0.15625"/><stop stop-opacity="1" stop-color="rgb(18.1427%, 72.465515%, 49.3927%)" offset="0.171875"/><stop stop-opacity="1" stop-color="rgb(17.959595%, 72.441101%, 49.673462%)" offset="0.1875"/><stop stop-opacity="1" stop-color="rgb(17.778015%, 72.415161%, 49.954224%)" offset="0.203125"/><stop stop-opacity="1" stop-color="rgb(17.59491%, 72.390747%, 50.233459%)" offset="0.21875"/><stop stop-opacity="1" stop-color="rgb(17.41333%, 72.366333%, 50.514221%)" offset="0.234375"/><stop stop-opacity="1" stop-color="rgb(17.230225%, 72.341919%, 50.794983%)" offset="0.25"/><stop stop-opacity="1" stop-color="rgb(17.048645%, 72.317505%, 51.074219%)" offset="0.265625"/><stop stop-opacity="1" stop-color="rgb(16.86554%, 72.293091%, 51.35498%)" offset="0.28125"/><stop stop-opacity="1" stop-color="rgb(16.682434%, 72.268677%, 51.635742%)" offset="0.296875"/><stop stop-opacity="1" stop-color="rgb(16.500854%, 72.244263%, 51.916504%)" offset="0.3125"/><stop stop-opacity="1" stop-color="rgb(16.317749%, 72.219849%, 52.19574%)" offset="0.328125"/><stop stop-opacity="1" stop-color="rgb(16.136169%, 72.195435%, 52.476501%)" offset="0.34375"/><stop stop-opacity="1" stop-color="rgb(15.953064%, 72.171021%, 52.757263%)" offset="0.359375"/><stop stop-opacity="1" stop-color="rgb(15.771484%, 72.146606%, 53.038025%)" offset="0.375"/><stop stop-opacity="1" stop-color="rgb(15.588379%, 72.122192%, 53.317261%)" offset="0.390625"/><stop stop-opacity="1" stop-color="rgb(15.405273%, 72.097778%, 53.598022%)" offset="0.40625"/><stop stop-opacity="1" stop-color="rgb(15.223694%, 72.073364%, 53.878784%)" offset="0.421875"/><stop stop-opacity="1" stop-color="rgb(15.040588%, 72.04895%, 54.159546%)" offset="0.4375"/><stop stop-opacity="1" stop-color="rgb(14.859009%, 72.024536%, 54.438782%)" offset="0.453125"/><stop stop-opacity="1" stop-color="rgb(14.675903%, 72.000122%, 54.719543%)" offset="0.458781"/><stop stop-opacity="1" stop-color="rgb(14.585876%, 71.987915%, 54.859924%)" offset="0.46875"/><stop stop-opacity="1" stop-color="rgb(14.494324%, 71.975708%, 55.000305%)" offset="0.484375"/><stop stop-opacity="1" stop-color="rgb(14.311218%, 71.951294%, 55.279541%)" offset="0.5"/><stop stop-opacity="1" stop-color="rgb(14.128113%, 71.92688%, 55.560303%)" offset="0.515625"/><stop stop-opacity="1" stop-color="rgb(13.946533%, 71.902466%, 55.841064%)" offset="0.53125"/><stop stop-opacity="1" stop-color="rgb(13.763428%, 71.878052%, 56.121826%)" offset="0.541219"/><stop stop-opacity="1" stop-color="rgb(13.673401%, 71.865845%, 56.262207%)" offset="0.546875"/><stop stop-opacity="1" stop-color="rgb(13.581848%, 71.853638%, 56.401062%)" offset="0.5625"/><stop stop-opacity="1" stop-color="rgb(13.398743%, 71.829224%, 56.681824%)" offset="0.578125"/><stop stop-opacity="1" stop-color="rgb(13.217163%, 71.803284%, 56.962585%)" offset="0.59375"/><stop stop-opacity="1" stop-color="rgb(13.034058%, 71.77887%, 57.243347%)" offset="0.609375"/><stop stop-opacity="1" stop-color="rgb(12.850952%, 71.754456%, 57.522583%)" offset="0.625"/><stop stop-opacity="1" stop-color="rgb(12.669373%, 71.730042%, 57.803345%)" offset="0.640625"/><stop stop-opacity="1" stop-color="rgb(12.486267%, 71.705627%, 58.084106%)" offset="0.65625"/><stop stop-opacity="1" stop-color="rgb(12.304688%, 71.681213%, 58.364868%)" offset="0.671875"/><stop stop-opacity="1" stop-color="rgb(12.121582%, 71.656799%, 58.644104%)" offset="0.6875"/><stop stop-opacity="1" stop-color="rgb(11.940002%, 71.632385%, 58.924866%)" offset="0.703125"/><stop stop-opacity="1" stop-color="rgb(11.756897%, 71.607971%, 59.205627%)" offset="0.71875"/><stop stop-opacity="1" stop-color="rgb(11.573792%, 71.583557%, 59.484863%)" offset="0.734375"/><stop stop-opacity="1" stop-color="rgb(11.392212%, 71.559143%, 59.765625%)" offset="0.75"/><stop stop-opacity="1" stop-color="rgb(11.209106%, 71.534729%, 60.046387%)" offset="0.765625"/><stop stop-opacity="1" stop-color="rgb(11.027527%, 71.510315%, 60.327148%)" offset="0.78125"/><stop stop-opacity="1" stop-color="rgb(10.844421%, 71.485901%, 60.606384%)" offset="0.796875"/><stop stop-opacity="1" stop-color="rgb(10.662842%, 71.461487%, 60.887146%)" offset="0.8125"/><stop stop-opacity="1" stop-color="rgb(10.479736%, 71.437073%, 61.167908%)" offset="0.828125"/><stop stop-opacity="1" stop-color="rgb(10.296631%, 71.412659%, 61.448669%)" offset="0.84375"/><stop stop-opacity="1" stop-color="rgb(10.202026%, 71.398926%, 61.593628%)" offset="0.875"/><stop stop-opacity="1" stop-color="rgb(10.198975%, 71.398926%, 61.599731%)" offset="1"/></linearGradient></defs><rect x="-81" width="972" fill="#ffffff" y="-80.999999" height="971.999992" fill-opacity="1"/><rect x="-81" width="972" fill="#ffffff" y="-80.999999" height="971.999992" fill-opacity="1"/><g clip-path="url(#17054eeef3)"><g clip-path="url(#75a5eb131b)"><path fill="url(#69afa07709)" d="M 43.398438 115.199219 L 43.398438 220.949219 L 149.148438 220.949219 L 149.148438 115.199219 Z M 43.398438 115.199219 " fill-rule="nonzero"/></g></g><path fill="#ffffff" d="M 92.945312 183.730469 C 93.546875 183.921875 94.152344 184.054688 94.753906 184.128906 C 95.359375 184.167969 95.964844 184.1875 96.566406 184.1875 C 98.078125 184.1875 99.527344 183.976562 100.925781 183.558594 C 102.320312 183.140625 103.621094 182.550781 104.832031 181.792969 C 106.074219 180.996094 107.167969 180.046875 108.113281 178.941406 C 109.09375 177.804688 117.855469 166.292969 116.828125 167.601562 L 125.886719 155.523438 C 124.449219 157.574219 118.714844 190.53125 116.828125 192.164062 C 114.980469 193.796875 112.960938 195.183594 110.773438 196.324219 C 108.621094 197.464844 106.339844 198.316406 103.925781 198.886719 C 101.546875 199.496094 99.09375 199.800781 96.566406 199.800781 C 92.304688 199.800781 88.285156 199.003906 84.511719 197.40625 C 80.777344 195.8125 77.492188 193.589844 74.664062 190.738281 C 71.871094 187.890625 69.664062 184.507812 68.042969 180.597656 C 66.417969 176.644531 65.609375 172.3125 65.609375 167.601562 C 65.609375 162.777344 66.417969 158.371094 68.042969 154.382812 C 69.664062 150.394531 71.871094 146.992188 74.664062 144.183594 C 77.492188 141.371094 80.777344 139.1875 84.511719 137.628906 C 88.285156 136.070312 92.304688 135.292969 96.566406 135.292969 C 99.09375 135.292969 101.566406 135.597656 103.980469 136.203125 C 106.394531 136.8125 108.679688 137.6875 110.828125 138.824219 C 113.019531 139.964844 115.054688 141.371094 116.941406 143.042969 C 118.828125 144.675781 120.488281 146.519531 121.921875 148.570312 Z M 100.867188 151.648438 C 100.152344 151.382812 99.433594 151.210938 98.71875 151.132812 C 98.039062 151.058594 97.320312 151.019531 96.566406 151.019531 C 94.453125 151.019531 92.453125 151.417969 90.566406 152.21875 C 88.71875 152.976562 87.097656 154.078125 85.699219 155.523438 C 84.339844 156.964844 83.265625 158.714844 82.472656 160.765625 C 81.679688 162.777344 81.285156 165.058594 81.285156 167.601562 C 81.285156 168.171875 81.304688 168.820312 81.34375 169.539062 C 81.417969 170.261719 81.511719 171.003906 81.625 171.761719 C 81.777344 172.484375 81.945312 173.1875 82.132812 173.871094 C 82.324219 174.554688 82.566406 175.164062 82.871094 175.695312 Z M 100.867188 151.648438 " fill-opacity="1" fill-rule="nonzero"/><g fill="#000000" fill-opacity="1"><g transform="translate(168.014044, 186.574991)"><g><path d="M 11.484375 -15.390625 L 11.484375 -5.796875 L 28.21875 -5.796875 L 28.21875 0 L 4.546875 0 L 4.546875 -35.046875 L 27.828125 -35.046875 L 27.828125 -29.25 L 11.484375 -29.25 L 11.484375 -21.046875 L 25.765625 -21.046875 L 25.765625 -15.390625 Z M 11.484375 -15.390625 "/></g></g></g><g fill="#000000" fill-opacity="1"><g transform="translate(198.1367, 186.574991)"><g><path d="M 13.0625 0.5 C 10.96875 0.5 9.117188 -0.00390625 7.515625 -1.015625 C 5.910156 -2.035156 4.648438 -3.570312 3.734375 -5.625 C 2.828125 -7.675781 2.375 -10.203125 2.375 -13.203125 C 2.375 -16.222656 2.835938 -18.757812 3.765625 -20.8125 C 4.703125 -22.875 6 -24.410156 7.65625 -25.421875 C 9.3125 -26.429688 11.226562 -26.9375 13.40625 -26.9375 C 15.050781 -26.9375 16.472656 -26.648438 17.671875 -26.078125 C 18.878906 -25.515625 19.898438 -24.632812 20.734375 -23.4375 L 21.234375 -23.5625 L 21.234375 -37.0625 L 27.875 -37.0625 L 27.875 0 L 21.234375 0 L 21.234375 -3.421875 L 20.734375 -3.53125 C 19.992188 -2.28125 18.984375 -1.296875 17.703125 -0.578125 C 16.429688 0.140625 14.882812 0.5 13.0625 0.5 Z M 15.21875 -5.125 C 17.09375 -5.125 18.570312 -5.789062 19.65625 -7.125 C 20.738281 -8.46875 21.28125 -10.492188 21.28125 -13.203125 C 21.28125 -15.921875 20.738281 -17.953125 19.65625 -19.296875 C 18.570312 -20.640625 17.09375 -21.3125 15.21875 -21.3125 C 13.269531 -21.3125 11.78125 -20.660156 10.75 -19.359375 C 9.71875 -18.054688 9.203125 -16.003906 9.203125 -13.203125 C 9.203125 -10.421875 9.71875 -8.378906 10.75 -7.078125 C 11.78125 -5.773438 13.269531 -5.125 15.21875 -5.125 Z M 15.21875 -5.125 "/></g></g></g><g fill="#000000" fill-opacity="1"><g transform="translate(229.817011, 186.574991)"><g><path d="M 12.109375 0.5 C 9.128906 0.5 6.929688 -0.304688 5.515625 -1.921875 C 4.109375 -3.546875 3.40625 -5.878906 3.40625 -8.921875 L 3.40625 -26.4375 L 10.046875 -26.4375 L 10.046875 -9.75 C 10.046875 -8.132812 10.390625 -6.957031 11.078125 -6.21875 C 11.773438 -5.476562 12.851562 -5.109375 14.3125 -5.109375 C 16.144531 -5.109375 17.570312 -5.707031 18.59375 -6.90625 C 19.625 -8.113281 20.140625 -10.015625 20.140625 -12.609375 L 20.140625 -26.4375 L 26.78125 -26.4375 L 26.78125 0 L 20.40625 0 L 20.40625 -3.890625 L 19.890625 -4 C 19.046875 -2.476562 18.007812 -1.347656 16.78125 -0.609375 C 15.5625 0.128906 14.003906 0.5 12.109375 0.5 Z M 12.109375 0.5 "/></g></g></g><g fill="#000000" fill-opacity="1"><g transform="translate(260.404664, 186.574991)"><g><path d="M 17.828125 -35.046875 C 20.242188 -35.046875 22.3125 -34.613281 24.03125 -33.75 C 25.757812 -32.882812 27.078125 -31.648438 27.984375 -30.046875 C 28.890625 -28.441406 29.34375 -26.550781 29.34375 -24.375 C 29.34375 -22.207031 28.890625 -20.320312 27.984375 -18.71875 C 27.078125 -17.125 25.757812 -15.890625 24.03125 -15.015625 C 22.3125 -14.148438 20.242188 -13.71875 17.828125 -13.71875 L 9.421875 -13.71875 L 9.421875 0 L 5.296875 0 L 5.296875 -35.046875 Z M 17.71875 -17.234375 C 22.59375 -17.234375 25.03125 -19.613281 25.03125 -24.375 C 25.03125 -29.15625 22.59375 -31.546875 17.71875 -31.546875 L 9.421875 -31.546875 L 9.421875 -17.234375 Z M 17.71875 -17.234375 "/></g></g></g><g fill="#000000" fill-opacity="1"><g transform="translate(292.348578, 186.574991)"><g><path d="M 15.171875 0.5 C 12.679688 0.5 10.507812 -0.0234375 8.65625 -1.078125 C 6.8125 -2.128906 5.390625 -3.679688 4.390625 -5.734375 C 3.398438 -7.796875 2.90625 -10.285156 2.90625 -13.203125 C 2.90625 -16.128906 3.398438 -18.625 4.390625 -20.6875 C 5.390625 -22.75 6.8125 -24.304688 8.65625 -25.359375 C 10.507812 -26.410156 12.679688 -26.9375 15.171875 -26.9375 C 17.660156 -26.9375 19.828125 -26.410156 21.671875 -25.359375 C 23.523438 -24.304688 24.953125 -22.75 25.953125 -20.6875 C 26.953125 -18.625 27.453125 -16.128906 27.453125 -13.203125 C 27.453125 -10.285156 26.953125 -7.796875 25.953125 -5.734375 C 24.953125 -3.679688 23.523438 -2.128906 21.671875 -1.078125 C 19.828125 -0.0234375 17.660156 0.5 15.171875 0.5 Z M 15.171875 -3 C 17.804688 -3 19.820312 -3.828125 21.21875 -5.484375 C 22.625 -7.148438 23.328125 -9.722656 23.328125 -13.203125 C 23.328125 -16.703125 22.625 -19.28125 21.21875 -20.9375 C 19.820312 -22.601562 17.804688 -23.4375 15.171875 -23.4375 C 12.535156 -23.4375 10.515625 -22.601562 9.109375 -20.9375 C 7.703125 -19.269531 7 -16.691406 7 -13.203125 C 7 -9.722656 7.703125 -7.148438 9.109375 -5.484375 C 10.515625 -3.828125 12.535156 -3 15.171875 -3 Z M 15.171875 -3 "/></g></g></g><g fill="#000000" fill-opacity="1"><g transform="translate(322.68691, 186.574991)"><g><path d="M 4.609375 0 L 4.609375 -26.4375 L 8.3125 -26.4375 L 8.3125 -22.296875 L 8.828125 -22.171875 C 10.054688 -25.179688 12.367188 -26.6875 15.765625 -26.6875 C 17.578125 -26.6875 18.929688 -26.359375 19.828125 -25.703125 L 18.8125 -22.390625 L 18.34375 -22.296875 C 17.351562 -22.785156 16.265625 -23.03125 15.078125 -23.03125 C 12.960938 -23.03125 11.335938 -22.238281 10.203125 -20.65625 C 9.078125 -19.082031 8.515625 -16.519531 8.515625 -12.96875 L 8.515625 0 Z M 4.609375 0 "/></g></g></g><g fill="#000000" fill-opacity="1"><g transform="translate(343.104176, 186.574991)"><g><path d="M 17.875 -4.1875 L 19.125 -1.390625 C 18.5 -0.765625 17.679688 -0.296875 16.671875 0.015625 C 15.660156 0.335938 14.5625 0.5 13.375 0.5 C 8.320312 0.5 5.796875 -2.054688 5.796875 -7.171875 L 5.796875 -23.25 L 1.203125 -23.25 L 1.203125 -26.46875 L 5.796875 -26.46875 L 5.796875 -32.046875 L 9.703125 -32.703125 L 9.703125 -26.46875 L 18.21875 -26.46875 L 18.21875 -23.25 L 9.703125 -23.25 L 9.703125 -7.546875 C 9.703125 -4.515625 11.019531 -3 13.65625 -3 C 15.101562 -3 16.34375 -3.394531 17.375 -4.1875 Z M 17.875 -4.1875 "/></g></g></g><g fill="#000000" fill-opacity="1"><g transform="translate(363.233875, 186.574991)"><g><path d="M 10.90625 0.5 C 8.300781 0.5 6.265625 -0.175781 4.796875 -1.53125 C 3.335938 -2.894531 2.609375 -4.835938 2.609375 -7.359375 C 2.609375 -8.921875 2.929688 -10.238281 3.578125 -11.3125 C 4.222656 -12.394531 5.222656 -13.273438 6.578125 -13.953125 C 7.941406 -14.640625 9.71875 -15.164062 11.90625 -15.53125 C 13.832031 -15.851562 15.289062 -16.210938 16.28125 -16.609375 C 17.28125 -17.015625 17.953125 -17.460938 18.296875 -17.953125 C 18.640625 -18.453125 18.8125 -19.078125 18.8125 -19.828125 C 18.8125 -21.023438 18.398438 -21.941406 17.578125 -22.578125 C 16.753906 -23.222656 15.429688 -23.546875 13.609375 -23.546875 C 11.898438 -23.546875 10.4375 -23.210938 9.21875 -22.546875 C 8 -21.878906 6.875 -20.890625 5.84375 -19.578125 L 5.375 -19.578125 L 3.453125 -22.296875 C 4.566406 -23.710938 5.988281 -24.835938 7.71875 -25.671875 C 9.445312 -26.515625 11.410156 -26.9375 13.609375 -26.9375 C 16.734375 -26.9375 19.03125 -26.253906 20.5 -24.890625 C 21.976562 -23.523438 22.71875 -21.632812 22.71875 -19.21875 L 22.71875 -5.203125 C 22.71875 -3.734375 23.34375 -3 24.59375 -3 C 25.007812 -3 25.410156 -3.070312 25.796875 -3.21875 L 26.125 -3.109375 L 26.578125 -0.40625 C 26.296875 -0.21875 25.914062 -0.0703125 25.4375 0.03125 C 24.96875 0.132812 24.488281 0.1875 24 0.1875 C 22.539062 0.1875 21.4375 -0.128906 20.6875 -0.765625 C 19.945312 -1.398438 19.472656 -2.34375 19.265625 -3.59375 L 18.765625 -3.640625 C 18.015625 -2.253906 17 -1.21875 15.71875 -0.53125 C 14.445312 0.15625 12.84375 0.5 10.90625 0.5 Z M 11.765625 -2.609375 C 13.234375 -2.609375 14.507812 -2.945312 15.59375 -3.625 C 16.675781 -4.3125 17.503906 -5.269531 18.078125 -6.5 C 18.648438 -7.726562 18.9375 -9.148438 18.9375 -10.765625 L 18.9375 -14.125 L 18.484375 -14.21875 C 17.890625 -13.800781 17.164062 -13.453125 16.3125 -13.171875 C 15.46875 -12.890625 14.289062 -12.640625 12.78125 -12.421875 C 11.238281 -12.210938 10.015625 -11.890625 9.109375 -11.453125 C 8.210938 -11.023438 7.570312 -10.476562 7.1875 -9.8125 C 6.800781 -9.15625 6.609375 -8.335938 6.609375 -7.359375 C 6.609375 -5.804688 7.0625 -4.625 7.96875 -3.8125 C 8.882812 -3.007812 10.148438 -2.609375 11.765625 -2.609375 Z M 11.765625 -2.609375 "/></g></g></g><g fill="#000000" fill-opacity="1"><g transform="translate(390.576716, 186.574991)"><g><path d="M 10.53125 0.5 C 8.65625 0.5 7.179688 -0.03125 6.109375 -1.09375 C 5.035156 -2.15625 4.5 -3.738281 4.5 -5.84375 L 4.5 -37.0625 L 8.40625 -37.0625 L 8.40625 -6.109375 C 8.40625 -5.003906 8.617188 -4.207031 9.046875 -3.71875 C 9.472656 -3.238281 10.132812 -3 11.03125 -3 C 11.570312 -3 12.125 -3.085938 12.6875 -3.265625 L 13.015625 -3.171875 L 13.46875 -0.09375 C 13.1875 0.09375 12.773438 0.238281 12.234375 0.34375 C 11.703125 0.445312 11.132812 0.5 10.53125 0.5 Z M 10.53125 0.5 "/></g></g></g></svg>